<svg width="22" height="23" viewBox="0 0 22 23" fill="none" xmlns="http://www.w3.org/2000/svg">
<path d="M13.0815 20.8591L19.5915 12.4091C20.6493 11.0352 21.1182 9.29736 20.8951 7.57776C20.6719 5.85817 19.775 4.29759 18.4015 3.23914C17.7346 2.68313 16.9599 2.27097 16.1262 2.02854C15.2924 1.78612 14.4175 1.71866 13.5565 1.8304C12.6954 1.94214 11.8667 2.23067 11.1225 2.67788C10.3782 3.12509 9.73441 3.72132 9.23151 4.42914L1.88151 13.9191C-0.00849301 16.1791 1.48151 18.9191 3.16151 20.2391C4.06165 20.9693 5.21352 21.3148 6.36691 21.2006C7.52031 21.0863 8.58205 20.5216 9.32151 19.6291L16.6315 10.1391C16.8564 9.84772 17.0215 9.51483 17.1176 9.15951C17.2137 8.80419 17.2387 8.43342 17.1914 8.0684C17.144 7.70338 17.0251 7.35129 16.8415 7.03226C16.658 6.71323 16.4133 6.43352 16.1215 6.20914C15.532 5.75763 14.7877 5.55783 14.0513 5.65339C13.3149 5.74895 12.6463 6.13211 12.1915 6.71914L6.02151 14.7191" stroke="black" stroke-width="2" stroke-miterlimit="10"/>
</svg>
