<svg width="51" height="62" viewBox="0 0 51 62" fill="none" xmlns="http://www.w3.org/2000/svg">
<path d="M19.3598 34.552C16.8758 34.552 14.5605 34.1533 12.4138 33.356C10.2978 32.528 8.45784 31.3627 6.89384 29.86C5.32984 28.3573 4.10317 26.594 3.21384 24.57C2.35517 22.546 1.92584 20.3227 1.92584 17.9C1.92584 15.4773 2.35517 13.254 3.21384 11.23C4.10317 9.206 5.32984 7.44266 6.89384 5.94C8.4885 4.43733 10.3438 3.28733 12.4598 2.49C14.5758 1.662 16.8912 1.248 19.4058 1.248C22.1965 1.248 24.7112 1.73867 26.9498 2.72C29.2192 3.67067 31.1205 5.08133 32.6538 6.952L27.8698 11.368C26.7658 10.1107 25.5392 9.17533 24.1898 8.562C22.8405 7.918 21.3685 7.596 19.7738 7.596C18.2712 7.596 16.8912 7.84133 15.6338 8.332C14.3765 8.82266 13.2878 9.528 12.3678 10.448C11.4478 11.368 10.7272 12.4567 10.2058 13.714C9.71517 14.9713 9.46984 16.3667 9.46984 17.9C9.46984 19.4333 9.71517 20.8287 10.2058 22.086C10.7272 23.3433 11.4478 24.432 12.3678 25.352C13.2878 26.272 14.3765 26.9773 15.6338 27.468C16.8912 27.9587 18.2712 28.204 19.7738 28.204C21.3685 28.204 22.8405 27.8973 24.1898 27.284C25.5392 26.64 26.7658 25.674 27.8698 24.386L32.6538 28.802C31.1205 30.6727 29.2192 32.0987 26.9498 33.08C24.7112 34.0613 22.1812 34.552 19.3598 34.552Z" fill="#37C6F7"/>
<path d="M12.8356 49V15.4H27.3796C30.3876 15.4 32.9796 15.896 35.1556 16.888C37.3316 17.848 39.0116 19.24 40.1956 21.064C41.3796 22.888 41.9716 25.064 41.9716 27.592C41.9716 30.088 41.3796 32.248 40.1956 34.072C39.0116 35.864 37.3316 37.24 35.1556 38.2C32.9796 39.16 30.3876 39.64 27.3796 39.64H17.1556L20.6116 36.232V49H12.8356ZM34.1956 49L25.7956 36.808H34.0996L42.5956 49H34.1956ZM20.6116 37.096L17.1556 33.448H26.9476C29.3476 33.448 31.1396 32.936 32.3236 31.912C33.5076 30.856 34.0996 29.416 34.0996 27.592C34.0996 25.736 33.5076 24.296 32.3236 23.272C31.1396 22.248 29.3476 21.736 26.9476 21.736H17.1556L20.6116 18.04V37.096Z" fill="black"/>
<path d="M2.96713 55L1.62213 53.255L1.92213 53.075L3.39213 55H2.96713ZM0.572128 55V51.5H0.932128V55H0.572128ZM0.822128 53.395V53.07H1.91713V53.395H0.822128ZM1.95213 53.29L1.61213 53.23L2.91713 51.5H3.31713L1.95213 53.29ZM6.5765 55.025C6.32317 55.025 6.09484 54.9683 5.8915 54.855C5.6915 54.7383 5.53317 54.58 5.4165 54.38C5.29984 54.1767 5.2415 53.945 5.2415 53.685C5.2415 53.4217 5.29984 53.19 5.4165 52.99C5.53317 52.79 5.6915 52.6333 5.8915 52.52C6.0915 52.4067 6.31984 52.35 6.5765 52.35C6.8365 52.35 7.0665 52.4067 7.2665 52.52C7.46984 52.6333 7.62817 52.79 7.7415 52.99C7.85817 53.19 7.9165 53.4217 7.9165 53.685C7.9165 53.945 7.85817 54.1767 7.7415 54.38C7.62817 54.58 7.46984 54.7383 7.2665 54.855C7.06317 54.9683 6.83317 55.025 6.5765 55.025ZM6.5765 54.71C6.7665 54.71 6.93484 54.6683 7.0815 54.585C7.22817 54.4983 7.34317 54.3783 7.4265 54.225C7.51317 54.0683 7.5565 53.8883 7.5565 53.685C7.5565 53.4783 7.51317 53.2983 7.4265 53.145C7.34317 52.9917 7.22817 52.8733 7.0815 52.79C6.93484 52.7033 6.76817 52.66 6.5815 52.66C6.39484 52.66 6.22817 52.7033 6.0815 52.79C5.93484 52.8733 5.81817 52.9917 5.7315 53.145C5.64484 53.2983 5.6015 53.4783 5.6015 53.685C5.6015 53.8883 5.64484 54.0683 5.7315 54.225C5.81817 54.3783 5.93484 54.4983 6.0815 54.585C6.22817 54.6683 6.39317 54.71 6.5765 54.71ZM10.3252 55V52.375H10.6802V53.535H12.3352V52.375H12.6902V55H12.3352V53.84H10.6802V55H10.3252ZM16.4492 55.025C16.1892 55.025 15.9559 54.9683 15.7492 54.855C15.5459 54.7383 15.3859 54.58 15.2692 54.38C15.1526 54.1767 15.0942 53.945 15.0942 53.685C15.0942 53.4217 15.1526 53.19 15.2692 52.99C15.3859 52.79 15.5459 52.6333 15.7492 52.52C15.9559 52.4067 16.1892 52.35 16.4492 52.35C16.6726 52.35 16.8742 52.3933 17.0542 52.48C17.2342 52.5667 17.3759 52.6967 17.4792 52.87L17.2142 53.05C17.1242 52.9167 17.0126 52.8183 16.8792 52.755C16.7459 52.6917 16.6009 52.66 16.4442 52.66C16.2576 52.66 16.0892 52.7033 15.9392 52.79C15.7892 52.8733 15.6709 52.9917 15.5842 53.145C15.4976 53.2983 15.4542 53.4783 15.4542 53.685C15.4542 53.8917 15.4976 54.0717 15.5842 54.225C15.6709 54.3783 15.7892 54.4983 15.9392 54.585C16.0892 54.6683 16.2576 54.71 16.4442 54.71C16.6009 54.71 16.7459 54.6783 16.8792 54.615C17.0126 54.5517 17.1242 54.455 17.2142 54.325L17.4792 54.505C17.3759 54.675 17.2342 54.805 17.0542 54.895C16.8742 54.9817 16.6726 55.025 16.4492 55.025ZM20.2678 55V52.59L20.3578 52.685H19.2728V52.375H21.6178V52.685H20.5328L20.6228 52.59V55H20.2678ZM25.1361 55.025C24.9094 55.025 24.7044 54.9733 24.5211 54.87C24.3377 54.7633 24.1911 54.6117 24.0811 54.415C23.9744 54.215 23.9211 53.9717 23.9211 53.685C23.9211 53.3983 23.9744 53.1567 24.0811 52.96C24.1877 52.76 24.3327 52.6083 24.5161 52.505C24.6994 52.4017 24.9061 52.35 25.1361 52.35C25.3861 52.35 25.6094 52.4067 25.8061 52.52C26.0061 52.63 26.1627 52.7867 26.2761 52.99C26.3894 53.19 26.4461 53.4217 26.4461 53.685C26.4461 53.9517 26.3894 54.185 26.2761 54.385C26.1627 54.585 26.0061 54.7417 25.8061 54.855C25.6094 54.9683 25.3861 55.025 25.1361 55.025ZM23.7811 55.97V52.375H24.1211V53.165L24.0861 53.69L24.1361 54.22V55.97H23.7811ZM25.1111 54.71C25.2977 54.71 25.4644 54.6683 25.6111 54.585C25.7577 54.4983 25.8744 54.3783 25.9611 54.225C26.0477 54.0683 26.0911 53.8883 26.0911 53.685C26.0911 53.4817 26.0477 53.3033 25.9611 53.15C25.8744 52.9967 25.7577 52.8767 25.6111 52.79C25.4644 52.7033 25.2977 52.66 25.1111 52.66C24.9244 52.66 24.7561 52.7033 24.6061 52.79C24.4594 52.8767 24.3427 52.9967 24.2561 53.15C24.1727 53.3033 24.1311 53.4817 24.1311 53.685C24.1311 53.8883 24.1727 54.0683 24.2561 54.225C24.3427 54.3783 24.4594 54.4983 24.6061 54.585C24.7561 54.6683 24.9244 54.71 25.1111 54.71ZM28.8306 55.995C28.7072 55.995 28.5889 55.975 28.4756 55.935C28.3656 55.895 28.2706 55.835 28.1906 55.755L28.3556 55.49C28.4222 55.5533 28.4939 55.6017 28.5706 55.635C28.6506 55.6717 28.7389 55.69 28.8356 55.69C28.9522 55.69 29.0522 55.6567 29.1356 55.59C29.2222 55.5267 29.3039 55.4133 29.3806 55.25L29.5506 54.865L29.5906 54.81L30.6706 52.375H31.0206L29.7056 55.315C29.6322 55.485 29.5506 55.62 29.4606 55.72C29.3739 55.82 29.2789 55.89 29.1756 55.93C29.0722 55.9733 28.9572 55.995 28.8306 55.995ZM29.5306 55.075L28.3206 52.375H28.6906L29.7606 54.785L29.5306 55.075ZM35.1487 55L34.0687 53.7L34.3637 53.525L35.5687 55H35.1487ZM33.2237 55V52.375H33.5787V55H33.2237ZM33.4687 53.83V53.525H34.3137V53.83H33.4687ZM34.3937 53.725L34.0637 53.675L35.1087 52.375H35.4937L34.3937 53.725ZM38.2252 55V52.59L38.3152 52.685H37.2302V52.375H39.5752V52.685H38.4902L38.5802 52.59V55H38.2252ZM42.6964 55.025C42.4431 55.025 42.2148 54.9683 42.0114 54.855C41.8114 54.7383 41.6531 54.58 41.5364 54.38C41.4198 54.1767 41.3614 53.945 41.3614 53.685C41.3614 53.4217 41.4198 53.19 41.5364 52.99C41.6531 52.79 41.8114 52.6333 42.0114 52.52C42.2114 52.4067 42.4398 52.35 42.6964 52.35C42.9564 52.35 43.1864 52.4067 43.3864 52.52C43.5898 52.6333 43.7481 52.79 43.8614 52.99C43.9781 53.19 44.0364 53.4217 44.0364 53.685C44.0364 53.945 43.9781 54.1767 43.8614 54.38C43.7481 54.58 43.5898 54.7383 43.3864 54.855C43.1831 54.9683 42.9531 55.025 42.6964 55.025ZM42.6964 54.71C42.8864 54.71 43.0548 54.6683 43.2014 54.585C43.3481 54.4983 43.4631 54.3783 43.5464 54.225C43.6331 54.0683 43.6764 53.8883 43.6764 53.685C43.6764 53.4783 43.6331 53.2983 43.5464 53.145C43.4631 52.9917 43.3481 52.8733 43.2014 52.79C43.0548 52.7033 42.8881 52.66 42.7014 52.66C42.5148 52.66 42.3481 52.7033 42.2014 52.79C42.0548 52.8733 41.9381 52.9917 41.8514 53.145C41.7648 53.2983 41.7214 53.4783 41.7214 53.685C41.7214 53.8883 41.7648 54.0683 41.8514 54.225C41.9381 54.3783 42.0548 54.4983 42.2014 54.585C42.3481 54.6683 42.5131 54.71 42.6964 54.71ZM47.8001 55.025C47.5735 55.025 47.3685 54.9733 47.1851 54.87C47.0018 54.7633 46.8551 54.6117 46.7451 54.415C46.6385 54.215 46.5851 53.9717 46.5851 53.685C46.5851 53.3983 46.6385 53.1567 46.7451 52.96C46.8518 52.76 46.9968 52.6083 47.1801 52.505C47.3635 52.4017 47.5701 52.35 47.8001 52.35C48.0501 52.35 48.2735 52.4067 48.4701 52.52C48.6701 52.63 48.8268 52.7867 48.9401 52.99C49.0535 53.19 49.1101 53.4217 49.1101 53.685C49.1101 53.9517 49.0535 54.185 48.9401 54.385C48.8268 54.585 48.6701 54.7417 48.4701 54.855C48.2735 54.9683 48.0501 55.025 47.8001 55.025ZM46.4451 55.97V52.375H46.7851V53.165L46.7501 53.69L46.8001 54.22V55.97H46.4451ZM47.7751 54.71C47.9618 54.71 48.1285 54.6683 48.2751 54.585C48.4218 54.4983 48.5385 54.3783 48.6251 54.225C48.7118 54.0683 48.7551 53.8883 48.7551 53.685C48.7551 53.4817 48.7118 53.3033 48.6251 53.15C48.5385 52.9967 48.4218 52.8767 48.2751 52.79C48.1285 52.7033 47.9618 52.66 47.7751 52.66C47.5885 52.66 47.4201 52.7033 47.2701 52.79C47.1235 52.8767 47.0068 52.9967 46.9201 53.15C46.8368 53.3033 46.7951 53.4817 46.7951 53.685C46.7951 53.8883 46.8368 54.0683 46.9201 54.225C47.0068 54.3783 47.1235 54.4983 47.2701 54.585C47.4201 54.6683 47.5885 54.71 47.7751 54.71ZM12.1985 61.025C11.9451 61.025 11.7168 60.9683 11.5135 60.855C11.3135 60.7383 11.1551 60.58 11.0385 60.38C10.9218 60.1767 10.8635 59.945 10.8635 59.685C10.8635 59.4217 10.9218 59.19 11.0385 58.99C11.1551 58.79 11.3135 58.6333 11.5135 58.52C11.7135 58.4067 11.9418 58.35 12.1985 58.35C12.4585 58.35 12.6885 58.4067 12.8885 58.52C13.0918 58.6333 13.2501 58.79 13.3635 58.99C13.4801 59.19 13.5385 59.4217 13.5385 59.685C13.5385 59.945 13.4801 60.1767 13.3635 60.38C13.2501 60.58 13.0918 60.7383 12.8885 60.855C12.6851 60.9683 12.4551 61.025 12.1985 61.025ZM12.1985 60.71C12.3885 60.71 12.5568 60.6683 12.7035 60.585C12.8501 60.4983 12.9651 60.3783 13.0485 60.225C13.1351 60.0683 13.1785 59.8883 13.1785 59.685C13.1785 59.4783 13.1351 59.2983 13.0485 59.145C12.9651 58.9917 12.8501 58.8733 12.7035 58.79C12.5568 58.7033 12.3901 58.66 12.2035 58.66C12.0168 58.66 11.8501 58.7033 11.7035 58.79C11.5568 58.8733 11.4401 58.9917 11.3535 59.145C11.2668 59.2983 11.2235 59.4783 11.2235 59.685C11.2235 59.8883 11.2668 60.0683 11.3535 60.225C11.4401 60.3783 11.5568 60.4983 11.7035 60.585C11.8501 60.6683 12.0151 60.71 12.1985 60.71ZM16.3495 61V58.59L16.4395 58.685H15.3545V58.375H17.6995V58.685H16.6145L16.7045 58.59V61H16.3495ZM21.5228 59.89C21.3695 59.9567 21.2145 60.01 21.0578 60.05C20.9045 60.0867 20.7511 60.105 20.5978 60.105C20.2878 60.105 20.0428 60.035 19.8628 59.895C19.6828 59.7517 19.5928 59.5317 19.5928 59.235V58.375H19.9428V59.215C19.9428 59.415 20.0078 59.565 20.1378 59.665C20.2678 59.765 20.4428 59.815 20.6628 59.815C20.7961 59.815 20.9361 59.7983 21.0828 59.765C21.2295 59.7283 21.3778 59.6767 21.5278 59.61L21.5228 59.89ZM21.4928 61V58.375H21.8478V61H21.4928ZM25.631 61.025C25.3576 61.025 25.1176 60.9683 24.911 60.855C24.7043 60.7383 24.5426 60.58 24.426 60.38C24.3093 60.1767 24.251 59.945 24.251 59.685C24.251 59.425 24.306 59.195 24.416 58.995C24.5293 58.795 24.6826 58.6383 24.876 58.525C25.0726 58.4083 25.2926 58.35 25.536 58.35C25.7826 58.35 26.001 58.4067 26.191 58.52C26.3843 58.63 26.536 58.7867 26.646 58.99C26.756 59.19 26.811 59.4217 26.811 59.685C26.811 59.7017 26.8093 59.72 26.806 59.74C26.806 59.7567 26.806 59.775 26.806 59.795H24.521V59.53H26.616L26.476 59.635C26.476 59.445 26.4343 59.2767 26.351 59.13C26.271 58.98 26.161 58.8633 26.021 58.78C25.881 58.6967 25.7193 58.655 25.536 58.655C25.356 58.655 25.1943 58.6967 25.051 58.78C24.9076 58.8633 24.796 58.98 24.716 59.13C24.636 59.28 24.596 59.4517 24.596 59.645V59.7C24.596 59.9 24.6393 60.0767 24.726 60.23C24.816 60.38 24.9393 60.4983 25.096 60.585C25.256 60.6683 25.4376 60.71 25.641 60.71C25.801 60.71 25.9493 60.6817 26.086 60.625C26.226 60.5683 26.346 60.4817 26.446 60.365L26.646 60.595C26.5293 60.735 26.3826 60.8417 26.206 60.915C26.0326 60.9883 25.841 61.025 25.631 61.025ZM29.6296 61V58.59L29.7196 58.685H28.6346V58.375H30.9796V58.685H29.8946L29.9846 58.59V61H29.6296ZM34.1008 61.025C33.8475 61.025 33.6192 60.9683 33.4158 60.855C33.2158 60.7383 33.0575 60.58 32.9408 60.38C32.8242 60.1767 32.7658 59.945 32.7658 59.685C32.7658 59.4217 32.8242 59.19 32.9408 58.99C33.0575 58.79 33.2158 58.6333 33.4158 58.52C33.6158 58.4067 33.8442 58.35 34.1008 58.35C34.3608 58.35 34.5908 58.4067 34.7908 58.52C34.9942 58.6333 35.1525 58.79 35.2658 58.99C35.3825 59.19 35.4408 59.4217 35.4408 59.685C35.4408 59.945 35.3825 60.1767 35.2658 60.38C35.1525 60.58 34.9942 60.7383 34.7908 60.855C34.5875 60.9683 34.3575 61.025 34.1008 61.025ZM34.1008 60.71C34.2908 60.71 34.4592 60.6683 34.6058 60.585C34.7525 60.4983 34.8675 60.3783 34.9508 60.225C35.0375 60.0683 35.0808 59.8883 35.0808 59.685C35.0808 59.4783 35.0375 59.2983 34.9508 59.145C34.8675 58.9917 34.7525 58.8733 34.6058 58.79C34.4592 58.7033 34.2925 58.66 34.1058 58.66C33.9192 58.66 33.7525 58.7033 33.6058 58.79C33.4592 58.8733 33.3425 58.9917 33.2558 59.145C33.1692 59.2983 33.1258 59.4783 33.1258 59.685C33.1258 59.8883 33.1692 60.0683 33.2558 60.225C33.3425 60.3783 33.4592 60.4983 33.6058 60.585C33.7525 60.6683 33.9175 60.71 34.1008 60.71ZM37.8495 61V58.375H39.0095C39.3062 58.375 39.5395 58.4317 39.7095 58.545C39.8829 58.6583 39.9695 58.825 39.9695 59.045C39.9695 59.2583 39.8879 59.4233 39.7245 59.54C39.5612 59.6533 39.3462 59.71 39.0795 59.71L39.1495 59.605C39.4629 59.605 39.6929 59.6633 39.8395 59.78C39.9862 59.8967 40.0595 60.065 40.0595 60.285C40.0595 60.5117 39.9762 60.6883 39.8095 60.815C39.6462 60.9383 39.3912 61 39.0445 61H37.8495ZM38.1945 60.72H39.0295C39.2529 60.72 39.4212 60.685 39.5345 60.615C39.6512 60.5417 39.7095 60.425 39.7095 60.265C39.7095 60.105 39.6579 59.9883 39.5545 59.915C39.4512 59.8417 39.2879 59.805 39.0645 59.805H38.1945V60.72ZM38.1945 59.54H38.9845C39.1879 59.54 39.3429 59.5017 39.4495 59.425C39.5595 59.3483 39.6145 59.2367 39.6145 59.09C39.6145 58.9433 39.5595 58.8333 39.4495 58.76C39.3429 58.6867 39.1879 58.65 38.9845 58.65H38.1945V59.54Z" fill="black"/>
</svg>
